Adsworth-opszmin.ufo
<glyph name="exclam" format="2">
  <advance width="758"/>
  <unicode hex="0021"/>
  <outline>
    <contour>
      <point x="224" y="534" type="line"/>
      <point x="214" y="1500" type="line"/>
      <point x="530" y="1500" type="line"/>
      <point x="520" y="534" type="line"/>
    </contour>
    <contour>
      <point x="376" y="-22" type="line" smooth="yes"/>
      <point x="454" y="-22"/>
      <point x="558" y="81"/>
      <point x="558" y="152" type="qcurve" smooth="yes"/>
      <point x="558" y="163" type="line" smooth="yes"/>
      <point x="558" y="233"/>
      <point x="456" y="338"/>
      <point x="376" y="338" type="qcurve" smooth="yes"/>
      <point x="373" y="338" type="line" smooth="yes"/>
      <point x="299" y="338"/>
      <point x="200" y="233"/>
      <point x="200" y="163" type="qcurve" smooth="yes"/>
      <point x="200" y="152" type="line" smooth="yes"/>
      <point x="200" y="79"/>
      <point x="297" y="-22"/>
      <point x="373" y="-22" type="qcurve" smooth="yes"/>
    </contour>
  </outline>
</glyph>
<glyph name="plus" format="2">
  <advance width="1500"/>
  <unicode hex="002B"/>
  <outline>
    <contour>
      <point x="1276" y="630" type="line"/>
      <point x="216" y="630" type="line"/>
      <point x="216" y="895" type="line"/>
      <point x="1276" y="895" type="line"/>
    </contour>
    <contour>
      <point x="888.0" y="1292.0" type="line"/>
      <point x="888.0" y="232.0" type="line"/>
      <point x="603.0" y="232.0" type="line"/>
      <point x="603.0" y="1292.0" type="line"/>
    </contour>
  </outline>
</glyph>
<glyph name="zero" format="2">
  <advance width="1330"/>
  <unicode hex="0030"/>
  <outline>
    <contour>
      <point x="664" y="-25" type="line" smooth="yes"/>
      <point x="414" y="-25"/>
      <point x="90" y="402"/>
      <point x="90" y="724" type="qcurve" smooth="yes"/>
      <point x="90" y="775" type="line" smooth="yes"/>
      <point x="90" y="1097"/>
      <point x="410" y="1524"/>
      <point x="660" y="1524" type="qcurve" smooth="yes"/>
      <point x="667" y="1524" type="line" smooth="yes"/>
      <point x="921" y="1524"/>
      <point x="1240" y="1097"/>
      <point x="1240" y="775" type="qcurve" smooth="yes"/>
      <point x="1240" y="724" type="line" smooth="yes"/>
      <point x="1240" y="402"/>
      <point x="925" y="-25"/>
      <point x="671" y="-25" type="qcurve" smooth="yes"/>
    </contour>
    <contour>
      <point x="666" y="190" type="line" smooth="yes"/>
      <point x="803" y="190"/>
      <point x="930" y="479"/>
      <point x="930" y="720" type="qcurve" smooth="yes"/>
      <point x="930" y="756" type="line" smooth="yes"/>
      <point x="930" y="997"/>
      <point x="806" y="1287"/>
      <point x="666" y="1287" type="qcurve" smooth="yes"/>
      <point x="662" y="1287" type="line" smooth="yes"/>
      <point x="530" y="1287"/>
      <point x="401" y="997"/>
      <point x="401" y="756" type="qcurve" smooth="yes"/>
      <point x="401" y="720" type="line" smooth="yes"/>
      <point x="401" y="479"/>
      <point x="528" y="190"/>
      <point x="662" y="190" type="qcurve" smooth="yes"/>
    </contour>
  </outline>
</glyph>
<glyph name="three" format="2">
  <advance width="1048"/>
  <unicode hex="0033"/>
  <outline>
    <contour>
      <point x="450" y="696" type="qcurve" smooth="yes"/>
      <point x="320" y="697" type="line"/>
      <point x="320" y="914" type="line"/>
      <point x="473" y="917" type="line" smooth="yes"/>
      <point x="559" y="919"/>
      <point x="661.0" y="1021.0"/>
      <point x="661" y="1101" type="qcurve" smooth="yes"/>
      <point x="661" y="1127" type="line" smooth="yes"/>
      <point x="661.0" y="1200.0"/>
      <point x="577" y="1287"/>
      <point x="497" y="1287" type="qcurve" smooth="yes"/>
      <point x="481" y="1287" type="line" smooth="yes"/>
      <point x="401" y="1287"/>
      <point x="315" y="1195"/>
      <point x="311" y="1132" type="qcurve" smooth="yes"/>
      <point x="309" y="1103" type="line"/>
      <point x="32" y="1105" type="line"/>
      <point x="32" y="1147" type="line" smooth="yes"/>
      <point x="32" y="1311"/>
      <point x="272" y="1524"/>
      <point x="475" y="1524" type="qcurve" smooth="yes"/>
      <point x="495" y="1524" type="line" smooth="yes"/>
      <point x="711" y="1524"/>
      <point x="960" y="1319"/>
      <point x="960" y="1174" type="qcurve" smooth="yes"/>
      <point x="960" y="1157" type="line" smooth="yes"/>
      <point x="960.0" y="1033.0"/>
      <point x="778" y="853"/>
      <point x="688" y="830" type="qcurve"/>
      <point x="810" y="807"/>
      <point x="1004" y="614"/>
      <point x="1004" y="450" type="qcurve" smooth="yes"/>
      <point x="1004" y="420" type="line" smooth="yes"/>
      <point x="1004" y="241"/>
      <point x="730" y="-25"/>
      <point x="499" y="-25" type="qcurve" smooth="yes"/>
      <point x="493" y="-25" type="line" smooth="yes"/>
      <point x="276" y="-25"/>
      <point x="14" y="180"/>
      <point x="11" y="337" type="qcurve" smooth="yes"/>
      <point x="9" y="437" type="line"/>
      <point x="282" y="437" type="line"/>
      <point x="282" y="378" type="line" smooth="yes"/>
      <point x="282" y="301"/>
      <point x="385" y="188"/>
      <point x="482" y="188" type="qcurve" smooth="yes"/>
      <point x="493" y="188" type="line" smooth="yes"/>
      <point x="590" y="188"/>
      <point x="690" y="325"/>
      <point x="690" y="442" type="qcurve" smooth="yes"/>
      <point x="690" y="460" type="line" smooth="yes"/>
      <point x="690" y="573"/>
      <point x="561" y="694"/>
    </contour>
  </outline>
</glyph>
<glyph name="six" format="2">
  <advance width="1187"/>
  <unicode hex="0036"/>
  <outline>
    <contour>
      <point x="362" y="493" type="qcurve"/>
      <point x="362" y="483" type="line" smooth="yes"/>
      <point x="362" y="353"/>
      <point x="483" y="190"/>
      <point x="617" y="190" type="qcurve" smooth="yes"/>
      <point x="622" y="190" type="line" smooth="yes"/>
      <point x="739" y="190"/>
      <point x="869" y="331"/>
      <point x="869" y="458" type="qcurve" smooth="yes"/>
      <point x="869" y="480" type="line" smooth="yes"/>
      <point x="869" y="617"/>
      <point x="725" y="744"/>
      <point x="616" y="744" type="qcurve" smooth="yes"/>
      <point x="610" y="744" type="line" smooth="yes"/>
      <point x="490" y="744"/>
      <point x="362" y="621"/>
      <point x="362" y="504" type="qcurve" smooth="yes"/>
      <point x="362" y="498" type="line"/>
      <point x="245" y="505" type="line"/>
      <point x="245" y="519" type="line" smooth="yes"/>
      <point x="245" y="708"/>
      <point x="457" y="960"/>
      <point x="664" y="960" type="qcurve" smooth="yes"/>
      <point x="671" y="960" type="line" smooth="yes"/>
      <point x="904" y="960"/>
      <point x="1165" y="695"/>
      <point x="1165" y="489" type="qcurve" smooth="yes"/>
      <point x="1165" y="454" type="line" smooth="yes"/>
      <point x="1165" y="255"/>
      <point x="865" y="-25"/>
      <point x="634" y="-25" type="qcurve" smooth="yes"/>
      <point x="627" y="-25" type="line" smooth="yes"/>
      <point x="378" y="-25"/>
      <point x="82" y="268"/>
      <point x="82" y="510" type="qcurve" smooth="yes"/>
      <point x="82" y="633" type="line" smooth="yes"/>
      <point x="82" y="1047"/>
      <point x="614" y="1531"/>
      <point x="942" y="1540" type="qcurve" smooth="yes"/>
      <point x="979" y="1540" type="line"/>
      <point x="979" y="1275" type="line"/>
      <point x="947" y="1275" type="line" smooth="yes"/>
      <point x="674" y="1275"/>
      <point x="321" y="885"/>
    </contour>
  </outline>
</glyph>
<glyph name="nine" format="2">
  <advance width="1187"/>
  <unicode hex="0039"/>
  <outline>
    <contour>
      <point x="825" y="984" type="qcurve"/>
      <point x="825" y="994" type="line" smooth="yes"/>
      <point x="825" y="1124"/>
      <point x="704" y="1287"/>
      <point x="570" y="1287" type="qcurve" smooth="yes"/>
      <point x="565" y="1287" type="line" smooth="yes"/>
      <point x="448" y="1287"/>
      <point x="318.0" y="1147.0"/>
      <point x="318" y="1009" type="qcurve" smooth="yes"/>
      <point x="318" y="997" type="line" smooth="yes"/>
      <point x="318" y="860"/>
      <point x="462" y="733"/>
      <point x="571" y="733" type="qcurve" smooth="yes"/>
      <point x="577" y="733" type="line" smooth="yes"/>
      <point x="697" y="733"/>
      <point x="825.0" y="856.0"/>
      <point x="825" y="973" type="qcurve" smooth="yes"/>
      <point x="825" y="979" type="line"/>
      <point x="942" y="972" type="line"/>
      <point x="942" y="958" type="line" smooth="yes"/>
      <point x="942" y="769"/>
      <point x="730" y="519"/>
      <point x="523" y="519" type="qcurve" smooth="yes"/>
      <point x="516" y="519" type="line" smooth="yes"/>
      <point x="283" y="519"/>
      <point x="22" y="804.0"/>
      <point x="22" y="1000" type="qcurve" smooth="yes"/>
      <point x="22" y="1013" type="line" smooth="yes"/>
      <point x="22" y="1234"/>
      <point x="322" y="1524"/>
      <point x="553" y="1524" type="qcurve" smooth="yes"/>
      <point x="560" y="1524" type="line" smooth="yes"/>
      <point x="809" y="1524"/>
      <point x="1105" y="1231"/>
      <point x="1105" y="989" type="qcurve" smooth="yes"/>
      <point x="1105" y="866" type="line" smooth="yes"/>
      <point x="1105" y="452"/>
      <point x="573" y="-11"/>
      <point x="245" y="-20" type="qcurve" smooth="yes"/>
      <point x="208" y="-20" type="line"/>
      <point x="208" y="245" type="line"/>
      <point x="240" y="245" type="line" smooth="yes"/>
      <point x="513" y="245"/>
      <point x="866" y="592"/>
    </contour>
  </outline>
</glyph>
<glyph name="less" format="2">
  <advance width="1500"/>
  <unicode hex="003C"/>
  <outline>
    <contour>
      <point x="218" y="623" type="line"/>
      <point x="218" y="893" type="line"/>
      <point x="1238.0" y="1296.0" type="line"/>
      <point x="1243" y="1004" type="line"/>
      <point x="597" y="760" type="line"/>
      <point x="1243" y="533" type="line"/>
      <point x="1238.0" y="220.0" type="line"/>
    </contour>
  </outline>
</glyph>
<glyph name="greater" format="2">
  <advance width="1500"/>
  <unicode hex="003E"/>
  <outline>
    <contour>
      <point x="1282.0" y="893.0" type="line"/>
      <point x="1282.0" y="623.0" type="line"/>
      <point x="262.0" y="220.0" type="line"/>
      <point x="257.0" y="512.0" type="line"/>
      <point x="903.0" y="756.0" type="line"/>
      <point x="257.0" y="983.0" type="line"/>
      <point x="262.0" y="1296.0" type="line"/>
    </contour>
  </outline>
</glyph>
<glyph name="question" format="2">
  <advance width="1078"/>
  <unicode hex="003F"/>
  <outline>
    <contour>
      <point x="482" y="-22" type="line" smooth="yes"/>
      <point x="560" y="-22"/>
      <point x="664" y="81"/>
      <point x="664" y="152" type="qcurve" smooth="yes"/>
      <point x="664" y="163" type="line" smooth="yes"/>
      <point x="664" y="233"/>
      <point x="562" y="338"/>
      <point x="482" y="338" type="qcurve" smooth="yes"/>
      <point x="479" y="338" type="line" smooth="yes"/>
      <point x="405" y="338"/>
      <point x="306" y="233"/>
      <point x="306" y="163" type="qcurve" smooth="yes"/>
      <point x="306" y="152" type="line" smooth="yes"/>
      <point x="306" y="79"/>
      <point x="403" y="-22"/>
      <point x="479" y="-22" type="qcurve" smooth="yes"/>
    </contour>
    <contour>
      <point x="612" y="520" type="line"/>
      <point x="320" y="520" type="line"/>
      <point x="318" y="841" type="line"/>
      <point x="531" y="848"/>
      <point x="662" y="986"/>
      <point x="662" y="1091" type="qcurve" smooth="yes"/>
      <point x="662" y="1108" type="line" smooth="yes"/>
      <point x="662" y="1190"/>
      <point x="594" y="1273"/>
      <point x="513" y="1273" type="qcurve" smooth="yes"/>
      <point x="509" y="1273" type="line" smooth="yes"/>
      <point x="437" y="1273.0"/>
      <point x="350" y="1197"/>
      <point x="351" y="1142" type="qcurve" smooth="yes"/>
      <point x="352" y="1090" type="line"/>
      <point x="27" y="1090" type="line"/>
      <point x="27" y="1149" type="line" smooth="yes"/>
      <point x="27" y="1317"/>
      <point x="306" y="1522.0"/>
      <point x="533" y="1522" type="qcurve"/>
      <point x="539" y="1522" type="line"/>
      <point x="752.0" y="1523.0"/>
      <point x="1010.0" y="1309.0"/>
      <point x="1010" y="1121" type="qcurve" smooth="yes"/>
      <point x="1010" y="1095" type="line" smooth="yes"/>
      <point x="1010" y="915"/>
      <point x="789" y="678"/>
      <point x="611" y="675" type="qcurve"/>
    </contour>
  </outline>
</glyph>
<glyph name="A" format="2">
  <advance width="1401"/>
  <unicode hex="0041"/>
  <outline>
    <contour>
      <point x="1151" y="315" type="line"/>
      <point x="281" y="315" type="line"/>
      <point x="281" y="565" type="line"/>
      <point x="1151" y="565" type="line"/>
    </contour>
    <contour>
      <point x="831" y="1500" type="line"/>
      <point x="1421" y="0" type="line"/>
      <point x="1104" y="0" type="line"/>
      <point x="708" y="1057" type="line"/>
      <point x="697" y="1057" type="line"/>
      <point x="301" y="0" type="line"/>
      <point x="-20" y="0" type="line"/>
      <point x="570" y="1500" type="line"/>
    </contour>
  </outline>
</glyph>
<glyph name="B" format="2">
  <advance width="1433"/>
  <unicode hex="0042"/>
  <outline>
    <contour>
      <point x="220" y="0" type="line"/>
      <point x="220" y="1500" type="line"/>
      <point x="530" y="1500" type="line"/>
      <point x="530" y="0" type="line"/>
    </contour>
    <contour>
      <point x="885" y="836" type="line"/>
      <point x="1095" y="836"/>
      <point x="1348" y="628"/>
      <point x="1348" y="442" type="qcurve" smooth="yes"/>
      <point x="1348" y="415" type="line" smooth="yes"/>
      <point x="1348" y="235"/>
      <point x="1092" y="0"/>
      <point x="889" y="0" type="qcurve" smooth="yes"/>
      <point x="360" y="0" type="line"/>
      <point x="360" y="233" type="line"/>
      <point x="765" y="233" type="line" smooth="yes"/>
      <point x="898" y="233"/>
      <point x="1061" y="349"/>
      <point x="1061" y="449" type="qcurve" smooth="yes"/>
      <point x="1061" y="463" type="line" smooth="yes"/>
      <point x="1061" y="560"/>
      <point x="900" y="670"/>
      <point x="765" y="670" type="qcurve" smooth="yes"/>
      <point x="360" y="670" type="line"/>
      <point x="360" y="904" type="line"/>
      <point x="697" y="904" type="line" smooth="yes"/>
      <point x="852" y="904"/>
      <point x="989" y="992"/>
      <point x="989" y="1079" type="qcurve" smooth="yes"/>
      <point x="989" y="1091" type="line" smooth="yes"/>
      <point x="989" y="1167"/>
      <point x="842" y="1266"/>
      <point x="707" y="1266" type="qcurve" smooth="yes"/>
      <point x="360" y="1266" type="line"/>
      <point x="360" y="1500" type="line"/>
      <point x="854" y="1500" type="line" smooth="yes"/>
      <point x="1041" y="1500"/>
      <point x="1268" y="1289"/>
      <point x="1268" y="1121" type="qcurve" smooth="yes"/>
      <point x="1268" y="1105" type="line" smooth="yes"/>
      <point x="1268" y="937"/>
      <point x="1036" y="725"/>
      <point x="857" y="725" type="qcurve"/>
    </contour>
  </outline>
</glyph>
<glyph name="F" format="2">
  <advance width="1105"/>
  <unicode hex="0046"/>
  <outline>
    <contour>
      <point x="220" y="0" type="line"/>
      <point x="220" y="1500" type="line"/>
      <point x="535" y="1500" type="line"/>
      <point x="535" y="0" type="line"/>
    </contour>
    <contour>
      <point x="1005" y="648" type="line"/>
      <point x="400" y="648" type="line"/>
      <point x="400" y="893" type="line"/>
      <point x="1005" y="893" type="line"/>
    </contour>
    <contour>
      <point x="1095" y="1255" type="line"/>
      <point x="400" y="1255" type="line"/>
      <point x="400" y="1500" type="line"/>
      <point x="1095" y="1500" type="line"/>
    </contour>
  </outline>
</glyph>
<glyph name="G" format="2">
  <advance width="1534"/>
  <unicode hex="0047"/>
  <outline>
    <contour>
      <point x="823" y="200" type="line" smooth="yes"/>
      <point x="983" y="200"/>
      <point x="1158" y="370"/>
      <point x="1163" y="528" type="qcurve" smooth="yes"/>
      <point x="1165" y="541" type="line"/>
      <point x="876" y="541" type="line"/>
      <point x="876" y="792" type="line"/>
      <point x="1462" y="792" type="line"/>
      <point x="1458" y="540" type="line" smooth="yes"/>
      <point x="1454" y="270"/>
      <point x="1134" y="-32"/>
      <point x="825" y="-32" type="qcurve" smooth="yes"/>
      <point x="814" y="-32" type="line" smooth="yes"/>
      <point x="486" y="-32"/>
      <point x="100" y="383"/>
      <point x="100" y="724" type="qcurve" smooth="yes"/>
      <point x="100" y="775" type="line" smooth="yes"/>
      <point x="100" y="1131"/>
      <point x="495" y="1530"/>
      <point x="787" y="1530" type="qcurve" smooth="yes"/>
      <point x="799" y="1530" type="line" smooth="yes"/>
      <point x="1084" y="1530"/>
      <point x="1407" y="1249"/>
      <point x="1421" y="1018" type="qcurve" smooth="yes"/>
      <point x="1423" y="986" type="line"/>
      <point x="1130" y="986" type="line"/>
      <point x="1128" y="994" type="line" smooth="yes"/>
      <point x="1119" y="1126"/>
      <point x="957" y="1279"/>
      <point x="803" y="1279" type="qcurve" smooth="yes"/>
      <point x="795" y="1279" type="line" smooth="yes"/>
      <point x="622" y="1279"/>
      <point x="422" y="1019"/>
      <point x="422" y="805" type="qcurve" smooth="yes"/>
      <point x="422" y="702" type="line" smooth="yes"/>
      <point x="422" y="481"/>
      <point x="622" y="200"/>
      <point x="818" y="200" type="qcurve" smooth="yes"/>
    </contour>
  </outline>
</glyph>
<glyph name="J" format="2">
  <advance width="1218"/>
  <unicode hex="004A"/>
  <outline>
    <contour>
      <point x="1048" y="500" type="line" smooth="yes"/>
      <point x="1048" y="235"/>
      <point x="749" y="-32"/>
      <point x="511" y="-32" type="qcurve" smooth="yes"/>
      <point x="489" y="-32" type="line" smooth="yes"/>
      <point x="240" y="-32"/>
      <point x="0" y="151"/>
      <point x="0" y="319" type="qcurve" smooth="yes"/>
      <point x="0" y="414" type="line"/>
      <point x="295" y="414" type="line"/>
      <point x="295" y="335" type="line" smooth="yes"/>
      <point x="295" y="270"/>
      <point x="391" y="191"/>
      <point x="481" y="191" type="qcurve" smooth="yes"/>
      <point x="499" y="191" type="line" smooth="yes"/>
      <point x="610" y="191"/>
      <point x="728" y="327"/>
      <point x="728" y="449" type="qcurve" smooth="yes"/>
      <point x="728" y="1500" type="line"/>
      <point x="1048" y="1500" type="line"/>
    </contour>
  </outline>
</glyph>
<glyph name="O" format="2">
  <advance width="1662"/>
  <unicode hex="004F"/>
  <outline>
    <contour>
      <point x="828" y="-32" type="line" smooth="yes"/>
      <point x="500" y="-32"/>
      <point x="100" y="394"/>
      <point x="100" y="716" type="qcurve" smooth="yes"/>
      <point x="100" y="779" type="line" smooth="yes"/>
      <point x="100" y="1091.0"/>
      <point x="495" y="1528"/>
      <point x="823" y="1528" type="qcurve" smooth="yes"/>
      <point x="833" y="1528" type="line" smooth="yes"/>
      <point x="1167" y="1528"/>
      <point x="1562.0" y="1101.0"/>
      <point x="1562" y="779" type="qcurve" smooth="yes"/>
      <point x="1562" y="716" type="line" smooth="yes"/>
      <point x="1562" y="394"/>
      <point x="1172" y="-32"/>
      <point x="838" y="-32" type="qcurve" smooth="yes"/>
    </contour>
    <contour>
      <point x="832" y="204" type="line" smooth="yes"/>
      <point x="1028" y="204"/>
      <point x="1239.0" y="491.0"/>
      <point x="1239" y="716" type="qcurve" smooth="yes"/>
      <point x="1239" y="764" type="line" smooth="yes"/>
      <point x="1239.0" y="987.0"/>
      <point x="1030" y="1277"/>
      <point x="832" y="1277" type="qcurve" smooth="yes"/>
      <point x="825" y="1277" type="line" smooth="yes"/>
      <point x="637" y="1277"/>
      <point x="423.0" y="987.0"/>
      <point x="423" y="764" type="qcurve" smooth="yes"/>
      <point x="423" y="716" type="line" smooth="yes"/>
      <point x="423.0" y="491.0"/>
      <point x="635" y="204"/>
      <point x="825" y="204" type="qcurve" smooth="yes"/>
    </contour>
  </outline>
</glyph>
<glyph name="Q" format="2">
  <advance width="1662"/>
  <unicode hex="0051"/>
  <outline>
    <contour>
      <point x="828" y="-12" type="line" smooth="yes"/>
      <point x="500" y="-12"/>
      <point x="100" y="414.0"/>
      <point x="100" y="736" type="qcurve" smooth="yes"/>
      <point x="100" y="779" type="line" smooth="yes"/>
      <point x="100" y="1101"/>
      <point x="495" y="1528"/>
      <point x="823" y="1528" type="qcurve" smooth="yes"/>
      <point x="833" y="1528" type="line" smooth="yes"/>
      <point x="1167" y="1528"/>
      <point x="1562" y="1101"/>
      <point x="1562" y="779" type="qcurve" smooth="yes"/>
      <point x="1562" y="736" type="line" smooth="yes"/>
      <point x="1562.0" y="444.0"/>
      <point x="1142.0" y="-12.0"/>
      <point x="838" y="-12" type="qcurve" smooth="yes"/>
    </contour>
    <contour>
      <point x="832" y="214" type="line" smooth="yes"/>
      <point x="1028" y="214"/>
      <point x="1239.0" y="521.0"/>
      <point x="1239" y="726" type="qcurve" smooth="yes"/>
      <point x="1239" y="764" type="line" smooth="yes"/>
      <point x="1239" y="967"/>
      <point x="1030" y="1277"/>
      <point x="832" y="1277" type="qcurve" smooth="yes"/>
      <point x="825" y="1277" type="line" smooth="yes"/>
      <point x="637" y="1277"/>
      <point x="423" y="967"/>
      <point x="423" y="764" type="qcurve" smooth="yes"/>
      <point x="423" y="726" type="line" smooth="yes"/>
      <point x="423.0" y="521.0"/>
      <point x="635" y="214"/>
      <point x="825" y="214" type="qcurve" smooth="yes"/>
    </contour>
    <contour>
      <point x="803" y="109" type="line"/>
      <point x="1626" y="173" type="line"/>
      <point x="1626" y="-82" type="line"/>
      <point x="804" y="-11" type="line"/>
    </contour>
  </outline>
</glyph>
<glyph name="S" format="2">
  <advance width="1260"/>
  <unicode hex="0053"/>
  <outline>
    <contour>
      <point x="906.0" y="414" type="line"/>
      <point x="906" y="498"/>
      <point x="792" y="588"/>
      <point x="576" y="653" type="qcurve"/>
      <point x="321" y="727"/>
      <point x="91" y="941.0"/>
      <point x="91" y="1126" type="qcurve" smooth="yes"/>
      <point x="91" y="1143" type="line" smooth="yes"/>
      <point x="91" y="1311"/>
      <point x="371" y="1530"/>
      <point x="606" y="1530" type="qcurve" smooth="yes"/>
      <point x="618" y="1530" type="line" smooth="yes"/>
      <point x="868" y="1530"/>
      <point x="1151" y="1304"/>
      <point x="1146" y="1110" type="qcurve" smooth="yes"/>
      <point x="1146" y="1067" type="line"/>
      <point x="841" y="1067" type="line"/>
      <point x="841.0" y="1117" type="line" smooth="yes"/>
      <point x="841" y="1185"/>
      <point x="720" y="1275"/>
      <point x="617.0" y="1275.0" type="qcurve" smooth="yes"/>
      <point x="610" y="1275" type="line" smooth="yes"/>
      <point x="512" y="1275"/>
      <point x="397" y="1198"/>
      <point x="397" y="1136" type="qcurve" smooth="yes"/>
      <point x="397" y="1127" type="line" smooth="yes"/>
      <point x="397" y="1063"/>
      <point x="494" y="1004"/>
      <point x="716" y="934" type="qcurve" smooth="yes"/>
      <point x="966" y="855"/>
      <point x="1209" y="639"/>
      <point x="1209" y="448" type="qcurve" smooth="yes"/>
      <point x="1209" y="404" type="line" smooth="yes"/>
      <point x="1209" y="220"/>
      <point x="918" y="-33"/>
      <point x="647" y="-33" type="qcurve" smooth="yes"/>
      <point x="642" y="-33" type="line" smooth="yes"/>
      <point x="347" y="-33"/>
      <point x="50" y="221"/>
      <point x="52" y="396" type="qcurve" smooth="yes"/>
      <point x="52" y="476" type="line"/>
      <point x="353" y="476" type="line"/>
      <point x="353.0" y="411" type="line" smooth="yes"/>
      <point x="353.0" y="314.0"/>
      <point x="482" y="199"/>
      <point x="637.0" y="199" type="qcurve" smooth="yes"/>
      <point x="642.0" y="199" type="line" smooth="yes"/>
      <point x="780" y="199"/>
      <point x="906" y="313"/>
      <point x="906.0" y="401" type="qcurve"/>
    </contour>
  </outline>
</glyph>
<glyph name="U" format="2">
  <advance width="1511"/>
  <unicode hex="0055"/>
  <outline>
    <contour>
      <point x="170" y="1500" type="line"/>
      <point x="477" y="1500" type="line"/>
      <point x="477" y="520" type="line" smooth="yes"/>
      <point x="477.0" y="380.0"/>
      <point x="616" y="216"/>
      <point x="747" y="216" type="qcurve" smooth="yes"/>
      <point x="753" y="216" type="line" smooth="yes"/>
      <point x="890" y="216"/>
      <point x="1031" y="378"/>
      <point x="1031" y="520" type="qcurve" smooth="yes"/>
      <point x="1031" y="1500" type="line"/>
      <point x="1341" y="1500" type="line"/>
      <point x="1341" y="603" type="line" smooth="yes"/>
      <point x="1341.0" y="280.0"/>
      <point x="1006" y="-33"/>
      <point x="763" y="-33" type="qcurve" smooth="yes"/>
      <point x="753" y="-33" type="line" smooth="yes"/>
      <point x="488" y="-33"/>
      <point x="170" y="325.0"/>
      <point x="170" y="633" type="qcurve" smooth="yes"/>
    </contour>
  </outline>
</glyph>
<glyph name="V" format="2">
  <advance width="1291"/>
  <unicode hex="0056"/>
  <outline>
    <contour>
      <point x="496" y="0" type="line"/>
      <point x="-30" y="1500" type="line"/>
      <point x="318" y="1500" type="line"/>
      <point x="656" y="449" type="line"/>
      <point x="997" y="1500" type="line"/>
      <point x="1321" y="1500" type="line"/>
      <point x="796" y="0" type="line"/>
    </contour>
  </outline>
</glyph>
<glyph name="bracketleft" format="2">
  <advance width="748"/>
  <unicode hex="005B"/>
  <outline>
    <contour>
      <point x="98" y="-280" type="line"/>
      <point x="98" y="1500" type="line"/>
      <point x="399" y="1500" type="line"/>
      <point x="399" y="-280" type="line"/>
    </contour>
    <contour>
      <point x="736" y="-280" type="line"/>
      <point x="279" y="-280" type="line"/>
      <point x="279" y="-35" type="line"/>
      <point x="736" y="-35" type="line"/>
    </contour>
    <contour>
      <point x="736" y="1255" type="line"/>
      <point x="274" y="1255" type="line"/>
      <point x="274" y="1500" type="line"/>
      <point x="736" y="1500" type="line"/>
    </contour>
  </outline>
</glyph>
<glyph name="a" format="2">
  <advance width="1240"/>
  <unicode hex="0061"/>
  <outline>
    <contour>
      <point x="159" y="956" type="line"/>
      <point x="239" y="1015"/>
      <point x="462" y="1081"/>
      <point x="603" y="1081" type="qcurve" smooth="yes"/>
      <point x="854" y="1081"/>
      <point x="1086" y="902"/>
      <point x="1087" y="721" type="qcurve" smooth="yes"/>
      <point x="1090" y="1" type="line"/>
      <point x="800" y="1" type="line"/>
      <point x="790" y="713" type="line" smooth="yes"/>
      <point x="789" y="772"/>
      <point x="718" y="865"/>
      <point x="607" y="865" type="qcurve" smooth="yes"/>
      <point x="507" y="865"/>
      <point x="281" y="797"/>
      <point x="194" y="738" type="qcurve"/>
    </contour>
    <contour>
      <point x="987" y="300" type="line"/>
      <point x="937" y="187"/>
      <point x="665" y="-22"/>
      <point x="505" y="-22" type="qcurve" smooth="yes"/>
      <point x="311" y="-22"/>
      <point x="68" y="160"/>
      <point x="68" y="328" type="qcurve" smooth="yes"/>
      <point x="68" y="488"/>
      <point x="328" y="680"/>
      <point x="496" y="680" type="qcurve" smooth="yes"/>
      <point x="679" y="680"/>
      <point x="893" y="589"/>
      <point x="989" y="516" type="qcurve"/>
      <point x="989" y="441" type="line"/>
      <point x="844" y="474"/>
      <point x="676" y="494"/>
      <point x="571" y="494" type="qcurve" smooth="yes"/>
      <point x="484" y="494"/>
      <point x="370" y="415"/>
      <point x="370" y="337" type="qcurve" smooth="yes"/>
      <point x="370" y="253"/>
      <point x="467" y="179"/>
      <point x="565" y="179" type="qcurve" smooth="yes"/>
      <point x="677" y="179"/>
      <point x="846" y="239"/>
      <point x="987" y="377" type="qcurve"/>
    </contour>
  </outline>
</glyph>
<glyph name="c" format="2">
  <advance width="1206"/>
  <unicode hex="0063"/>
  <outline>
    <contour>
      <point x="1174" y="378" type="line"/>
      <point x="1171" y="351" type="line" smooth="yes"/>
      <point x="1150" y="189"/>
      <point x="882" y="-25"/>
      <point x="658" y="-25" type="qcurve" smooth="yes"/>
      <point x="649" y="-25" type="line" smooth="yes"/>
      <point x="407" y="-25"/>
      <point x="82" y="269"/>
      <point x="82" y="504" type="qcurve" smooth="yes"/>
      <point x="82" y="540" type="line" smooth="yes"/>
      <point x="82" y="775"/>
      <point x="396" y="1082"/>
      <point x="636" y="1082" type="qcurve" smooth="yes"/>
      <point x="660" y="1082" type="line" smooth="yes"/>
      <point x="892" y="1082"/>
      <point x="1154" y="865"/>
      <point x="1170" y="682" type="qcurve" smooth="yes"/>
      <point x="1172" y="654" type="line"/>
      <point x="885" y="654" type="line"/>
      <point x="883" y="676" type="line" smooth="yes"/>
      <point x="876" y="772"/>
      <point x="771" y="878"/>
      <point x="663" y="878" type="qcurve" smooth="yes"/>
      <point x="648" y="878" type="line" smooth="yes"/>
      <point x="534" y="878"/>
      <point x="402" y="703"/>
      <point x="402" y="566" type="qcurve" smooth="yes"/>
      <point x="402" y="482" type="line" smooth="yes"/>
      <point x="402" y="345"/>
      <point x="536" y="177"/>
      <point x="653" y="177" type="qcurve" smooth="yes"/>
      <point x="666" y="177" type="line" smooth="yes"/>
      <point x="775" y="177"/>
      <point x="875" y="284"/>
      <point x="888" y="365" type="qcurve" smooth="yes"/>
      <point x="892" y="380" type="line"/>
    </contour>
  </outline>
</glyph>
<glyph name="k" format="2">
  <advance width="1186"/>
  <unicode hex="006B"/>
  <outline>
    <contour>
      <point x="176" y="0" type="line"/>
      <point x="176" y="1540" type="line"/>
      <point x="476" y="1540" type="line"/>
      <point x="476" y="0" type="line"/>
    </contour>
    <contour>
      <point x="610" y="490" type="line"/>
      <point x="476" y="374" type="line"/>
      <point x="476" y="584" type="line"/>
      <point x="567" y="688" type="line"/>
      <point x="878" y="1040" type="line"/>
      <point x="1204" y="1040" type="line"/>
      <point x="776" y="578" type="line"/>
    </contour>
    <contour>
      <point x="752" y="717" type="line"/>
      <point x="1277" y="0" type="line"/>
      <point x="939" y="0" type="line"/>
      <point x="524" y="557" type="line"/>
    </contour>
  </outline>
</glyph>
<glyph name="l" format="2">
  <advance width="747"/>
  <unicode hex="006C"/>
  <outline>
    <contour>
      <point x="170" y="256" type="qcurve" smooth="yes"/>
      <point x="180" y="1539" type="line"/>
      <point x="470" y="1539" type="line"/>
      <point x="470" y="1" type="line"/>
      <point x="327" y="1"/>
      <point x="169" y="149"/>
    </contour>
    <contour>
      <point x="760" y="54" type="line"/>
      <point x="470" y="1" type="line"/>
      <point x="222" y="225" type="line"/>
      <point x="760" y="290" type="line"/>
    </contour>
  </outline>
</glyph>
<glyph name="asciitilde" format="2">
  <advance width="1500"/>
  <unicode hex="007E"/>
  <outline>
    <contour>
      <point x="790" y="904" type="qcurve" smooth="yes"/>
      <point x="726" y="952"/>
      <point x="609" y="1005.0"/>
      <point x="506" y="1005.0" type="qcurve" smooth="yes"/>
      <point x="385.0" y="1005.0"/>
      <point x="205" y="825.0"/>
      <point x="171" y="750.0" type="qcurve"/>
      <point x="373" y="598" type="line"/>
      <point x="390" y="633"/>
      <point x="487" y="720"/>
      <point x="548" y="720" type="qcurve"/>
      <point x="608" y="720"/>
      <point x="678" y="684"/>
      <point x="719" y="654" type="qcurve" smooth="yes"/>
      <point x="777" y="610"/>
      <point x="903" y="546"/>
      <point x="1007" y="546" type="qcurve" smooth="yes"/>
      <point x="1140" y="546"/>
      <point x="1325" y="729.0"/>
      <point x="1352" y="802.0" type="qcurve"/>
      <point x="1151" y="953" type="line"/>
      <point x="1134" y="920"/>
      <point x="1030" y="831"/>
      <point x="970" y="831" type="qcurve" smooth="yes"/>
      <point x="909" y="831"/>
      <point x="839" y="868"/>
    </contour>
  </outline>
</glyph>
